<svg width="381" height="122" viewBox="0 0 381 122" fill="none" xmlns="http://www.w3.org/2000/svg">
<path d="M153.789 74.0143C151.461 74.0143 149.313 73.4743 147.345 72.3943C145.401 71.2903 143.853 69.7663 142.701 67.8223C141.573 65.8543 141.009 63.6463 141.009 61.1983C141.009 58.7503 141.573 56.5543 142.701 54.6103C143.853 52.6663 145.401 51.1543 147.345 50.0743C149.313 48.9703 151.461 48.4183 153.789 48.4183C156.141 48.4183 158.289 48.9703 160.233 50.0743C162.201 51.1543 163.749 52.6663 164.877 54.6103C166.005 56.5543 166.569 58.7503 166.569 61.1983C166.569 63.6463 166.005 65.8543 164.877 67.8223C163.749 69.7663 162.201 71.2903 160.233 72.3943C158.289 73.4743 156.141 74.0143 153.789 74.0143ZM153.789 70.4503C155.445 70.4503 156.921 70.0783 158.217 69.3343C159.513 68.5663 160.521 67.4863 161.241 66.0943C161.985 64.6783 162.357 63.0463 162.357 61.1983C162.357 59.3503 161.985 57.7303 161.241 56.3383C160.521 54.9463 159.513 53.8783 158.217 53.1343C156.921 52.3903 155.445 52.0183 153.789 52.0183C152.133 52.0183 150.657 52.3903 149.361 53.1343C148.065 53.8783 147.045 54.9463 146.301 56.3383C145.581 57.7303 145.221 59.3503 145.221 61.1983C145.221 63.0463 145.581 64.6783 146.301 66.0943C147.045 67.4863 148.065 68.5663 149.361 69.3343C150.657 70.0783 152.133 70.4503 153.789 70.4503ZM192.171 48.7423L182.775 73.7623H178.023L168.591 48.7423H172.983L180.399 69.5503L187.851 48.7423H192.171ZM199.707 52.0543V59.3983H208.347V62.7463H199.707V70.4143H209.427V73.7623H195.603V48.7063H209.427V52.0543H199.707ZM227.478 73.7623L221.718 63.7543H218.586V73.7623H214.482V48.7423H223.122C225.042 48.7423 226.662 49.0783 227.982 49.7503C229.326 50.4223 230.322 51.3223 230.97 52.4503C231.642 53.5783 231.978 54.8383 231.978 56.2303C231.978 57.8623 231.498 59.3503 230.538 60.6943C229.602 62.0143 228.15 62.9143 226.182 63.3943L232.374 73.7623H227.478ZM218.586 60.4783H223.122C224.658 60.4783 225.81 60.0943 226.578 59.3263C227.37 58.5583 227.766 57.5263 227.766 56.2303C227.766 54.9343 227.382 53.9263 226.614 53.2063C225.846 52.4623 224.682 52.0903 223.122 52.0903H218.586V60.4783ZM241.332 70.4503H249.792V73.7623H237.228V48.7423H241.332V70.4503ZM264.636 74.0143C262.308 74.0143 260.16 73.4743 258.192 72.3943C256.248 71.2903 254.7 69.7663 253.548 67.8223C252.42 65.8543 251.856 63.6463 251.856 61.1983C251.856 58.7503 252.42 56.5543 253.548 54.6103C254.7 52.6663 256.248 51.1543 258.192 50.0743C260.16 48.9703 262.308 48.4183 264.636 48.4183C266.988 48.4183 269.136 48.9703 271.08 50.0743C273.048 51.1543 274.596 52.6663 275.724 54.6103C276.852 56.5543 277.416 58.7503 277.416 61.1983C277.416 63.6463 276.852 65.8543 275.724 67.8223C274.596 69.7663 273.048 71.2903 271.08 72.3943C269.136 73.4743 266.988 74.0143 264.636 74.0143ZM264.636 70.4503C266.292 70.4503 267.768 70.0783 269.064 69.3343C270.36 68.5663 271.368 67.4863 272.088 66.0943C272.832 64.6783 273.204 63.0463 273.204 61.1983C273.204 59.3503 272.832 57.7303 272.088 56.3383C271.368 54.9463 270.36 53.8783 269.064 53.1343C267.768 52.3903 266.292 52.0183 264.636 52.0183C262.98 52.0183 261.504 52.3903 260.208 53.1343C258.912 53.8783 257.892 54.9463 257.148 56.3383C256.428 57.7303 256.068 59.3503 256.068 61.1983C256.068 63.0463 256.428 64.6783 257.148 66.0943C257.892 67.4863 258.912 68.5663 260.208 69.3343C261.504 70.0783 262.98 70.4503 264.636 70.4503ZM296.539 68.6503H286.063L284.263 73.7623H279.979L288.943 48.7063H293.695L302.659 73.7623H298.339L296.539 68.6503ZM295.387 65.3023L291.319 53.6743L287.215 65.3023H295.387ZM314.728 48.7423C317.392 48.7423 319.72 49.2583 321.712 50.2903C323.728 51.2983 325.276 52.7623 326.356 54.6823C327.46 56.5783 328.012 58.7983 328.012 61.3423C328.012 63.8863 327.46 66.0943 326.356 67.9663C325.276 69.8383 323.728 71.2783 321.712 72.2863C319.72 73.2703 317.392 73.7623 314.728 73.7623H306.556V48.7423H314.728ZM314.728 70.4143C317.656 70.4143 319.9 69.6223 321.46 68.0383C323.02 66.4543 323.8 64.2223 323.8 61.3423C323.8 58.4383 323.02 56.1703 321.46 54.5383C319.9 52.9063 317.656 52.0903 314.728 52.0903H310.66V70.4143H314.728ZM333.736 74.0143C332.992 74.0143 332.368 73.7623 331.864 73.2583C331.36 72.7543 331.108 72.1303 331.108 71.3863C331.108 70.6423 331.36 70.0183 331.864 69.5143C332.368 69.0103 332.992 68.7583 333.736 68.7583C334.456 68.7583 335.068 69.0103 335.572 69.5143C336.076 70.0183 336.328 70.6423 336.328 71.3863C336.328 72.1303 336.076 72.7543 335.572 73.2583C335.068 73.7623 334.456 74.0143 333.736 74.0143ZM354.407 48.7423V66.7783C354.407 69.0103 353.723 70.7743 352.355 72.0703C351.011 73.3663 349.235 74.0143 347.027 74.0143C344.819 74.0143 343.031 73.3663 341.663 72.0703C340.319 70.7743 339.647 69.0103 339.647 66.7783H343.787C343.811 67.8823 344.087 68.7583 344.615 69.4063C345.167 70.0543 345.971 70.3783 347.027 70.3783C348.083 70.3783 348.887 70.0543 349.439 69.4063C349.991 68.7343 350.267 67.8583 350.267 66.7783V48.7423H354.407ZM369.328 74.0143C367.648 74.0143 366.136 73.7263 364.792 73.1503C363.448 72.5503 362.392 71.7103 361.624 70.6303C360.856 69.5503 360.472 68.2903 360.472 66.8503H364.864C364.96 67.9303 365.38 68.8183 366.124 69.5143C366.892 70.2103 367.96 70.5583 369.328 70.5583C370.744 70.5583 371.848 70.2223 372.64 69.5503C373.432 68.8543 373.828 67.9663 373.828 66.8863C373.828 66.0463 373.576 65.3623 373.072 64.8343C372.592 64.3063 371.98 63.8983 371.236 63.6103C370.516 63.3223 369.508 63.0103 368.212 62.6743C366.58 62.2423 365.248 61.8103 364.216 61.3783C363.208 60.9223 362.344 60.2263 361.624 59.2903C360.904 58.3543 360.544 57.1063 360.544 55.5463C360.544 54.1063 360.904 52.8463 361.624 51.7663C362.344 50.6863 363.352 49.8583 364.648 49.2823C365.944 48.7063 367.444 48.4183 369.148 48.4183C371.572 48.4183 373.552 49.0303 375.088 50.2543C376.648 51.4543 377.512 53.1103 377.68 55.2223H373.144C373.072 54.3103 372.64 53.5303 371.848 52.8823C371.056 52.2343 370.012 51.9103 368.716 51.9103C367.54 51.9103 366.58 52.2103 365.836 52.8103C365.092 53.4103 364.72 54.2743 364.72 55.4023C364.72 56.1703 364.948 56.8063 365.404 57.3103C365.884 57.7903 366.484 58.1743 367.204 58.4623C367.924 58.7503 368.908 59.0623 370.156 59.3983C371.812 59.8543 373.156 60.3103 374.188 60.7663C375.244 61.2223 376.132 61.9303 376.852 62.8903C377.596 63.8263 377.968 65.0863 377.968 66.6703C377.968 67.9423 377.62 69.1423 376.924 70.2703C376.252 71.3983 375.256 72.3103 373.936 73.0063C372.64 73.6783 371.104 74.0143 369.328 74.0143Z" fill="white"/>
<path fill-rule="evenodd" clip-rule="evenodd" d="M57.6936 1.0718C55.2184 -0.357266 52.1688 -0.357266 49.6936 1.0718L4 27.453C1.52479 28.8821 0 31.5231 0 34.3812V87.1436C0 90.0017 1.52479 92.6427 4 94.0718L49.6936 120.453C52.1688 121.882 55.2184 121.882 57.6936 120.453L103.387 94.0718C105.862 92.6427 107.387 90.0017 107.387 87.1436V34.3812C107.387 31.5231 105.862 28.8821 103.387 27.453L57.6936 1.0718ZM92.1934 60.7625L75.4189 85.7625H61.1934L77.1934 60.7625L61.1934 35.7625H75.4189L92.1934 60.7625ZM51.9188 85.7625L68.6934 60.7625L51.9188 35.7625H37.6934L53.6934 60.7625L37.6934 85.7625H51.9188ZM45.6934 60.7625L28.9188 85.7625H14.6934L30.6934 60.7625L14.6934 35.7625H28.9188L45.6934 60.7625Z" fill="url(#paint0_linear_138_4974)"/>
<defs>
<linearGradient id="paint0_linear_138_4974" x1="81" y1="17" x2="25" y2="104.5" gradientUnits="userSpaceOnUse">
<stop stop-color="#F73221"/>
<stop offset="1" stop-color="#F73221" stop-opacity="0.4"/>
<stop offset="1" stop-color="#F73221" stop-opacity="0.4"/>
</linearGradient>
</defs>
</svg>
